<svg width="22" height="22" fill="none" xmlns="http://www.w3.org/2000/svg"><path d="M20.475 16.43l-4.048-2.7a1.182 1.182 0 00-1.582.257l-1.18 1.516a.504.504 0 01-.645.136l-.225-.123c-.743-.406-1.668-.91-3.532-2.775-1.865-1.865-2.37-2.79-2.775-3.533l-.123-.224a.505.505 0 01.133-.649l1.515-1.179c.485-.38.597-1.068.257-1.582l-2.7-4.048a1.175 1.175 0 00-1.584-.356L2.294 2.186c-.532.313-.923.82-1.09 1.414-.609 2.22-.15 6.054 5.496 11.7 4.492 4.492 7.836 5.7 10.134 5.7a5.906 5.906 0 001.567-.205 2.386 2.386 0 001.413-1.088l1.017-1.692a1.176 1.176 0 00-.356-1.585zm-.218 1.243l-1.015 1.693a1.723 1.723 0 01-1.017.788c-2.05.562-5.632.096-11.053-5.325C1.75 9.41 1.285 5.827 1.848 3.776c.121-.428.404-.793.788-1.018L4.33 1.743a.51.51 0 01.688.154L6.483 4.1l1.231 1.846a.513.513 0 01-.111.686l-1.516 1.18c-.46.352-.593.99-.309 1.496l.12.219c.427.781.956 1.753 2.89 3.686 1.933 1.933 2.905 2.463 3.685 2.889l.22.12a1.166 1.166 0 001.497-.309l1.178-1.515a.513.513 0 01.687-.111l4.048 2.7a.51.51 0 01.154.687zM12.333 4.335a5.672 5.672 0 015.666 5.666.333.333 0 10.666 0 6.34 6.34 0 00-6.332-6.332.333.333 0 100 .666z" fill="#A78460" stroke="#A78A60" stroke-width=".2"/><path d="M12.333 6.335a3.67 3.67 0 013.666 3.666.333.333 0 10.666 0 4.338 4.338 0 00-4.332-4.333.333.333 0 100 .667z" fill="#A78460" stroke="#A78A60" stroke-width=".2"/><path d="M12.333 8.335c.92 0 1.665.746 1.666 1.666a.333.333 0 10.667 0 2.336 2.336 0 00-2.333-2.333.333.333 0 100 .667z" fill="#A78460" stroke="#A78A60" stroke-width=".2"/></svg>