<svg width="40" height="40" fill="none" xmlns="http://www.w3.org/2000/svg"><path d="M33.105 18.894V.012H0v21.226h6.738l-.001 18.75h33.261L40 18.893h-6.895zm-26.367 0H2.344V2.355h28.418v21.62l-5.081-5.081H15.134l-8.396-8.396v8.396zM37.641 37.64H9.082V16.157l5.081 5.08H24.71l8.395 8.396v-8.395h4.536V37.64z" fill="#043E70"/><path d="M17.578 28.27h2.344v2.343h-2.344v-2.344zm4.688 0h2.343v2.343h-2.343v-2.344zm4.687 0h2.344v2.343h-2.344v-2.344zM23.66 7.144L22.043 5.45l-5.617 5.361-2.12-2.12-1.657 1.658 3.74 3.74 7.273-6.944z" fill="#043E70"/></svg>