<svg width="39" height="41" fill="none" xmlns="http://www.w3.org/2000/svg"><path d="M19.516.357c-6.392 0-11.593 5.2-11.593 11.593 0 7.832 6.753 13.235 10.788 16.463l.805.644.805-.644c4.035-3.228 10.788-8.63 10.788-16.463 0-6.393-5.2-11.593-11.593-11.593zm0 25.395C14.84 21.946 10.5 17.706 10.5 11.95c0-4.972 4.045-9.017 9.017-9.017 4.972 0 9.017 4.045 9.017 9.017 0 5.756-4.341 9.996-9.017 13.802z" fill="#043E70"/><path d="M19.516 9.373a2.58 2.58 0 00-2.576 2.577 2.58 2.58 0 002.576 2.576 2.58 2.58 0 002.577-2.576 2.58 2.58 0 00-2.577-2.577zm15.662 19.489a1.127 1.127 0 10-1.085 1.975c1.342.737 2.112 1.555 2.112 2.243 0 .84-1.192 2.145-4.538 3.282-3.305 1.123-7.723 1.741-12.438 1.741-4.715 0-9.132-.618-12.438-1.741-3.346-1.137-4.538-2.441-4.538-3.282 0-.688.77-1.506 2.112-2.243a1.127 1.127 0 10-1.085-1.975C1.784 29.684 0 31.083 0 33.08c0 1.53 1.052 3.712 6.066 5.415 3.533 1.2 8.208 1.861 13.163 1.861 4.956 0 9.63-.66 13.163-1.86 5.014-1.704 6.066-3.886 6.066-5.416 0-1.997-1.783-3.396-3.28-4.218z" fill="#043E70"/><path d="M10.723 34.733c2.287.646 5.308 1.002 8.506 1.002 3.198 0 6.22-.356 8.507-1.002 2.798-.79 4.217-1.935 4.217-3.401 0-1.466-1.42-2.61-4.217-3.4a22 22 0 00-2.015-.461c-.39.674-.8 1.367-1.226 2.08.795.12 1.541.266 2.219.44 2.06.524 2.812 1.114 2.966 1.341-.155.227-.907.818-2.966 1.342-1.95.496-4.457.78-7.098.805a5.273 5.273 0 01-.773 0c-2.642-.025-5.15-.309-7.099-.805-2.059-.524-2.811-1.115-2.966-1.342.155-.227.907-.817 2.966-1.342a22.704 22.704 0 012.22-.438c-.428-.714-.836-1.408-1.226-2.081-.719.131-1.394.285-2.015.46-2.799.79-4.217 1.935-4.217 3.401 0 1.466 1.418 2.61 4.217 3.4z" fill="#043E70"/></svg>