<svg width="40" height="40" fill="none" xmlns="http://www.w3.org/2000/svg"><g clip-path="url(#clip0)" fill="#043E70"><path d="M40 7.652H7.055L5.86.002H0v2.345h3.854l5.102 32.657h2.285c-.16.411-.25.858-.25 1.326a3.674 3.674 0 003.67 3.669 3.674 3.674 0 003.67-3.67 3.65 3.65 0 00-.25-1.325h9.67c-.16.411-.25.858-.25 1.326a3.674 3.674 0 003.67 3.669 3.674 3.674 0 003.67-3.67 3.674 3.674 0 00-3.67-3.669H10.962l-.614-3.931h25.36L40 7.651zM15.987 36.33c0 .73-.595 1.325-1.326 1.325a1.327 1.327 0 01-1.325-1.325 1.326 1.326 0 012.651 0zm16.51 0c0 .73-.595 1.325-1.326 1.325a1.327 1.327 0 01-1.326-1.325 1.327 1.327 0 012.652 0zM9.982 26.385l-2.56-16.39h29.71l-3.338 16.39H9.982z"/><path d="M18.702 14.049h2.343v8.28h-2.343v-8.28zm4.688 0h2.343v8.28h-2.344v-8.28zm4.687 0h2.343v8.28h-2.343v-8.28zm-14.063 0h2.344v8.28h-2.344v-8.28z"/></g><defs><clipPath id="clip0"><path fill="#fff" d="M0 0h40v40H0z"/></clipPath></defs></svg>