<svg width="459" height="459" fill="none" xmlns="http://www.w3.org/2000/svg"><path d="M228.993 0C103.351 0 0 103.351 0 228.993c0 125.643 103.351 228.994 228.993 228.994 125.643 0 228.994-103.351 228.994-228.994C457.987 103.351 355.649 0 228.993 0z" fill="#fff"/><path d="M228.993 0C103.351 0 0 103.351 0 228.993c0 125.643 103.351 228.994 228.993 228.994 125.643 0 228.994-103.351 228.994-228.994C457.987 103.351 355.649 0 228.993 0zm0 60.795c35.464 0 68.901 11.145 95.245 29.384L91.192 325.252c-19.252-27.358-30.397-60.795-30.397-96.259 0-92.205 75.993-168.198 168.198-168.198zm0 337.41c-35.463 0-68.9-11.145-95.245-29.384l234.06-234.059c19.252 27.357 29.384 59.781 29.384 95.245 1.013 92.205-74.98 168.198-168.199 168.198z" fill="#FF6464"/><path d="M0 228.993c0 126.656 103.351 228.994 228.993 228.994 125.643 0 228.994-103.351 228.994-228.994C457.987 103.351 355.649 0 228.993 0 102.338 0 0 103.351 0 228.993zm398.205 0c0 35.464-11.145 68.901-29.384 95.245L133.748 91.192c27.358-19.252 59.782-30.397 95.245-30.397 93.219 0 169.212 75.993 169.212 168.198zm-337.41 0c0-35.463 11.145-68.9 29.384-95.245l234.059 234.06c-27.357 19.252-59.781 29.384-95.245 29.384-92.205 1.013-168.198-74.98-168.198-168.199z" fill="#FF6464"/></svg>