<svg width="27" height="34" fill="none" xmlns="http://www.w3.org/2000/svg"><path d="M.5 13.5c0-7.168 5.832-13 13-13s13 5.832 13 13c0 4.408-1.899 8.154-4.41 11.284-2.514 3.133-5.612 5.614-7.965 7.497l-.625.5-.625-.5c-2.353-1.883-5.452-4.364-7.966-7.497C2.4 21.654.5 17.907.5 13.5z" fill="#043E70" stroke="#043E70"/><path d="M10.066 20.602l-3.549-9.316h2.44l2.218 5.823 1.996-4.193-.468-.698-.64-.932h2.66l2.219 5.823 2.218-5.823h1.33l-3.326 9.316h-1.331l-2.218-5.124-2.218 5.124h-1.331z" fill="#fff"/></svg>