<svg version="1.1" id="Слой_1" xmlns="http://www.w3.org/2000/svg" x="0" y="0" viewBox="0 0 321 45.7" xml:space="preserve"><path d="M36.3 13.7l8.4 10.8h-4.3l-7.8-9.9h-2.4v9.9h-3.5V1.1h5.6c6 0 8.3 3.2 8.3 6.8.1 3.1-1.8 4.9-4.3 5.8zm-6-9.5v7.3h2.1c2.8 0 4.7-1.1 4.7-3.7s-1.9-3.6-4.7-3.6h-2.1zm18.5 20.3V1.1h3.5v11.7L62.9 1.1h4L56.4 12.7l11.3 11.8H63L52.4 13.4v11.1h-3.6zm26.8-13.8h12.3V1.1h3.5v23.5h-3.5V13.9H75.6v10.7H72V1.1h3.5v9.6zm67.5 14.7L126.7 6.6v17.9h-3.5V1.1h3.1l13.4 15.5V1.1h3.5l-.1 24.3zm25.5-4.6c-1.4 2.7-4.5 4.1-8 4.1-6.8 0-11.8-5.2-11.8-12.3C148.7 6 154 .6 160.6.5h.4c4.7-.1 9 2.9 10.6 7.4h-4.1c-1.1-2.6-3.7-4.2-6.6-4.2-4.6 0-8.4 3.5-8.4 9s3.3 9.1 8.5 9.1c4.3 0 7.2-2.7 7.2-6.7v-.3h-6.1v-3.1h9.6v12.8h-2.5l-.6-3.7zm13.3-6.9v7.5h9.5v3.2h-13.1V1.1h13.1v3.2h-9.5v6.5h9.2V14h-9.2zm16.2-12.8h3.5v20.3h9.5v3.2H198V1.1zm26.1 9.9c3.1 1.3 6.1 3 6.1 6.9 0 4.4-3.5 7-7.8 7-4.5 0-7.8-2.7-8.1-7.2h3.8c.3 2.8 2 4.2 4.4 4.2s4.1-1.2 4.1-3.5-1.9-3.3-4.4-4.3l-1.9-.8c-2.7-1.1-5.3-3.1-5.3-6.5 0-3.8 3.2-6.3 7.4-6.3 3.8-.2 7 2.6 7.4 6.4h-3.8c-.5-2.3-1.8-3.3-3.9-3.3s-3.5 1.1-3.5 2.8c0 1.9 1.3 2.9 3.6 3.8l1.9.8zm12.3 13.5V1.1h3.5v11.7l10.5-11.7h4L244 12.7l11.3 11.8h-4.7L240 13.4v11.1h-3.5zm32.3-24c6.7 0 12.2 5.5 12.1 12.3s-5.5 12.2-12.3 12.1c-6.7 0-12.1-5.5-12.1-12.2-.1-6.6 5.2-12.1 11.8-12.2h.5zm-8.5 12.2c0 5.2 3.5 9 8.5 9s8.5-3.8 8.5-9-3.6-9-8.5-9-8.5 3.8-8.5 9zm34.4 1.6v10.2h-3.5V14.3l-8-13.2h4.1l5.9 9.8 5.8-9.8h3.7l-8 13.2zm16.8-.4v7.5h9.5v3.2h-13.1V1.1H321v3.2h-9.5v6.5h9.2V14h-9.2zM5.4 35c2.9 0 5.3 2.4 5.3 5.3s-2.4 5.3-5.3 5.3S.1 43.2.1 40.3 2.4 35 5.2 35h.2zm-3.7 5.3c.1 2 1.9 3.6 3.9 3.5 2-.1 3.6-1.9 3.5-3.9-.1-2-1.7-3.5-3.7-3.5S1.7 38 1.7 40.1v.2zM73 41.7v-6.5h1.5v6.6c0 2.4-1.6 3.8-4.1 3.8s-4-1.4-4-3.8v-6.6H68v6.5c-.1 1.4.9 2.6 2.3 2.7s2.6-.9 2.7-2.3v-.4zm59.6-5.1h-3.3v-1.4h8.2v1.4h-3.3v8.8h-1.5l-.1-8.8zm59.8-1.4h1.5V44h4.1v1.4h-5.7l.1-10.2zm62.2 5.6v3.3h4.2v1.4h-5.7V35.2h5.7v1.4h-4.2v2.8h4v1.4h-4zm61.5-4.2h-3.3v-1.4h8.2v1.4h-3.3v8.8h-1.5v-8.8zM107.2 0L96.4 24.5h3.6l2.1-4.9v-.1h10.3l.4.9 1.8 4.1h3.7L107.2 0zm-3.3 15.3l.5-1.2 2.8-6.3 2.8 6.3 1 2.3h-7.5l.4-1.1zm-85.7 9.2H22L10.9 0 0 24.5h3.6l2.2-5H16l2.2 5zM10.9 7.8l2.9 6.6.9 2H7.1l.5-1 3.3-7.6z" fill="#333"/></svg>