<svg width="20" height="28" fill="none" xmlns="http://www.w3.org/2000/svg"><path d="M10.091 6.136a3.584 3.584 0 00-3.58 3.58 3.584 3.584 0 003.58 3.58 3.584 3.584 0 003.58-3.58 3.584 3.584 0 00-3.58-3.58zm0 6.136a2.56 2.56 0 01-2.556-2.556 2.56 2.56 0 012.556-2.557 2.56 2.56 0 012.557 2.557 2.56 2.56 0 01-2.557 2.556z" fill="#A78460"/><path d="M16.935 2.872A9.742 9.742 0 0010 0a9.741 9.741 0 00-6.934 2.872C-.361 6.3-.787 12.747 2.144 16.654L10.001 28l7.844-11.33c2.943-3.923 2.517-10.37-.91-13.798zm.081 13.2l-7.015 10.131-7.027-10.147C.316 12.512.697 6.688 3.79 3.596A8.725 8.725 0 0110 1.022c2.347 0 4.552.913 6.212 2.572 3.093 3.093 3.474 8.917.804 12.477z" fill="#A78460"/></svg>