<svg width="30" height="30" fill="none" xmlns="http://www.w3.org/2000/svg"><path d="M30 25.303A4.697 4.697 0 0125.303 30H4.697A4.697 4.697 0 010 25.303V6.106L6.106 0h19.197A4.697 4.697 0 0130 4.697v20.606z" fill="#FD5546"/><path opacity=".2" d="M0 9.378V6.106h3.256L0 9.378z" fill="#5D5D5D"/><path d="M0 6.106h4.07c1.12 0 2.036-.9 2.036-2.02V0L0 6.106z" fill="#FF8377"/><path d="M5.028 20.18v-9.824h4.863c.461 0 .871.075 1.23.226.357.15.654.36.89.63.235.268.414.588.537.96.122.372.184.785.184 1.237 0 .452-.06.876-.177 1.272a2.97 2.97 0 01-.523 1.025 2.4 2.4 0 01-.883.678c-.359.165-.778.247-1.258.247H6.625v3.548H5.028zm1.598-8.354v3.307h2.713c.622 0 1.077-.139 1.364-.417.288-.277.431-.713.431-1.307 0-.566-.153-.97-.459-1.216-.306-.245-.752-.367-1.336-.367H6.626zm11.858-1.216l1.54-.424v8.368a3.624 3.624 0 00.1.876c.037.113.08.233.127.36.047.128.108.257.184.39h-1.626a2.138 2.138 0 01-.17-.383 5.95 5.95 0 01-.084-.452c-.283.283-.606.52-.968.714-.363.193-.752.29-1.166.29-.49 0-.922-.08-1.294-.24a2.658 2.658 0 01-.94-.665 2.773 2.773 0 01-.572-1.01 4.067 4.067 0 01-.19-1.265v-.679c0-1.196.315-2.096.946-2.7.631-.602 1.55-.904 2.756-.904.462 0 .914.09 1.357.268V10.61zm0 3.972a2.113 2.113 0 00-.714-.254 4.392 4.392 0 00-.756-.071c-.377 0-.695.052-.954.155-.26.104-.471.25-.636.438a1.67 1.67 0 00-.353.679 3.31 3.31 0 00-.106.862v.523c0 .264.018.52.056.77.038.25.11.47.22.658.107.188.256.341.444.459.189.118.434.177.736.177.197 0 .393-.033.586-.1.193-.065.38-.152.558-.26a3.856 3.856 0 00.92-.771v-3.265zm3.506-2.318c0-.264.035-.52.105-.77.07-.25.181-.471.332-.665a1.64 1.64 0 01.594-.466c.245-.118.537-.177.876-.177.16 0 .342.017.544.05.203.033.38.073.53.12v1.215h-.565c-.292 0-.511.08-.657.24-.146.161-.22.382-.22.665v.58h1.372l-.41 1.272h-.961v5.851h-1.54v-5.851h-.891v-1.272h.89v-.792z" fill="#FF7063"/><path d="M5.028 19.827v-9.823h4.863c.461 0 .871.075 1.23.226.357.15.654.36.89.629.235.268.414.589.537.96.122.373.184.785.184 1.238 0 .452-.06.876-.177 1.272a2.97 2.97 0 01-.523 1.024 2.4 2.4 0 01-.883.679c-.359.165-.778.247-1.258.247H6.625v3.548H5.028zm1.598-8.353v3.307h2.713c.622 0 1.077-.139 1.364-.417.288-.278.431-.714.431-1.307 0-.566-.153-.97-.459-1.216-.306-.245-.752-.367-1.336-.367H6.626zm11.858-1.216l1.54-.424v8.367a3.624 3.624 0 00.1.877c.037.113.08.233.127.36.047.127.108.257.184.389h-1.626a2.134 2.134 0 01-.17-.382 5.932 5.932 0 01-.084-.452 4.05 4.05 0 01-.968.714c-.363.193-.752.29-1.166.29-.49 0-.922-.08-1.294-.24a2.658 2.658 0 01-.94-.665 2.773 2.773 0 01-.572-1.01 4.066 4.066 0 01-.19-1.266v-.678c0-1.197.315-2.097.946-2.7.631-.603 1.55-.904 2.756-.904.462 0 .914.09 1.357.268v-2.544zm0 3.972a2.115 2.115 0 00-.714-.255 4.401 4.401 0 00-.756-.07c-.377 0-.695.052-.954.155-.26.104-.471.25-.636.438a1.67 1.67 0 00-.353.679 3.31 3.31 0 00-.106.862v.523c0 .264.018.52.056.77.038.25.11.469.22.657.107.189.256.342.444.46.189.118.434.176.736.176.197 0 .393-.032.586-.099a2.8 2.8 0 00.558-.261 3.856 3.856 0 00.92-.77V14.23zm3.506-2.318c0-.264.035-.52.105-.77.07-.25.181-.472.332-.665a1.64 1.64 0 01.594-.466c.245-.118.537-.177.876-.177.16 0 .342.017.544.05.203.033.38.073.53.12v1.215h-.565c-.292 0-.511.08-.657.24-.146.16-.22.382-.22.665v.58h1.372l-.41 1.271h-.961v5.852h-1.54v-5.852h-.891v-1.272h.89v-.791z" fill="#fff"/></svg>